<svg width="275" height="60" viewBox="0 0 275 60" fill="none" xmlns="http://www.w3.org/2000/svg">
<path d="M27.3463 56.6788L0 29.9468L5.29283 24.7728L32.6391 51.5049C34.1007 52.9336 36.4704 52.9336 37.932 51.5049L65.2783 24.7728L70.5711 29.9468L43.2248 56.6788C38.8401 60.9651 31.731 60.9651 27.3463 56.6788Z" fill="#6366F0"/>
<path d="M43.2248 3.21468L61.7497 21.3235L56.4569 26.4975L37.932 8.38863C36.4704 6.95989 34.1007 6.95989 32.6392 8.38863L27.3463 13.5626L48.5177 34.2584L43.2248 39.4323L22.0535 18.7365L14.1142 26.4975L8.8214 21.3235L27.3463 3.21468C31.731 -1.07156 38.8401 -1.07156 43.2248 3.21468Z" fill="#6366F0"/>
<path d="M93.5824 13.4251L87.7984 47.4827H80.5514L86.3354 13.4251H93.5824Z" fill="#6366F0"/>
<path d="M122.196 47.4827L122.894 43.2588L138.289 27.7765L138.358 27.5936H126.007L126.977 21.9395H148.071L147.323 26.5459L132.744 41.6457L132.676 41.8286H145.128L144.193 47.4827H122.196Z" fill="#6366F0"/>
<path d="M149.658 47.4827L150.355 43.2588L165.751 27.7765L165.819 27.5936H153.468L154.438 21.9395H175.533L174.784 26.5459L160.205 41.6457L160.137 41.8286H172.59L171.654 47.4827H149.658Z" fill="#6366F0"/>
<path d="M203.632 48.0149C201.454 48.0149 199.611 47.4439 198.103 46.302C196.606 45.149 195.54 43.5637 194.905 41.5459C194.27 39.5282 194.173 37.2222 194.616 34.628C195.047 32.1003 195.897 29.8553 197.167 27.893C198.449 25.9196 200.014 24.373 201.863 23.2533C203.711 22.1224 205.696 21.557 207.817 21.557C210.006 21.557 211.849 22.1391 213.346 23.3032C214.854 24.4561 215.926 26.0471 216.561 28.0759C217.196 30.0936 217.304 32.3941 216.884 34.9772C216.453 37.4938 215.591 39.7388 214.298 41.7122C213.017 43.6745 211.452 45.2156 209.603 46.3353C207.754 47.455 205.764 48.0149 203.632 48.0149ZM203.666 46.1357C205.526 46.1357 207.238 45.6258 208.803 44.6058C210.369 43.5859 211.678 42.2056 212.733 40.465C213.799 38.7244 214.508 36.7788 214.86 34.628C215.211 32.5437 215.16 30.659 214.707 28.9739C214.253 27.2777 213.442 25.9362 212.274 24.9495C211.106 23.9517 209.626 23.4528 207.834 23.4528C205.985 23.4528 204.273 23.9683 202.696 24.9994C201.131 26.0304 199.816 27.4162 198.749 29.1568C197.683 30.8974 196.975 32.8375 196.623 34.9772C196.26 37.0504 196.305 38.9351 196.759 40.6313C197.224 42.3165 198.041 43.6579 199.209 44.6557C200.388 45.6424 201.874 46.1357 203.666 46.1357Z" fill="#6366F0"/>
<path d="M221.89 47.4827L226.245 21.9395H228.269L227.589 25.9306H227.776C228.547 24.6224 229.681 23.5748 231.178 22.7876C232.675 21.9894 234.286 21.5903 236.01 21.5903C236.202 21.5903 236.384 21.5903 236.554 21.5903C236.724 21.5903 236.894 21.5958 237.064 21.6069L236.707 23.6524C236.571 23.6413 236.407 23.6247 236.214 23.6025C236.032 23.5692 235.805 23.5526 235.533 23.5526C234.082 23.5526 232.738 23.8575 231.501 24.4672C230.265 25.077 229.233 25.9196 228.405 26.9949C227.577 28.0592 227.05 29.2788 226.823 30.6535L223.965 47.4827H221.89Z" fill="#6366F0"/>
<path d="M238.217 47.4827L242.572 21.9395H244.596L243.916 25.7976H244.12C244.857 24.5227 245.901 23.5083 247.25 22.7544C248.611 21.9894 250.154 21.6069 251.877 21.6069C253.76 21.6069 255.206 22.0504 256.215 22.9373C257.225 23.8242 257.866 25.0271 258.138 26.5459H258.325C259.073 25.0382 260.185 23.8408 261.659 22.9539C263.145 22.0559 264.857 21.6069 266.797 21.6069C269.314 21.6069 271.106 22.3885 272.172 23.9517C273.25 25.5038 273.556 27.6324 273.091 30.3375L270.165 47.4827H268.09L271.016 30.3375C271.367 28.1978 271.14 26.5238 270.335 25.3153C269.53 24.0958 268.118 23.4861 266.099 23.4861C263.944 23.4861 262.164 24.1457 260.758 25.465C259.351 26.7843 258.478 28.4639 258.138 30.5038L255.229 47.4827H253.153L256.096 30.2045C256.425 28.2089 256.204 26.5903 255.433 25.3486C254.662 24.1069 253.25 23.4861 251.197 23.4861C249.825 23.4861 248.571 23.7965 247.437 24.4173C246.303 25.0382 245.362 25.8918 244.613 26.9783C243.865 28.0648 243.377 29.312 243.15 30.72L240.292 47.4827H238.217Z" fill="#6366F0"/>
<path fill-rule="evenodd" clip-rule="evenodd" d="M105.444 47.9816C102.767 47.9816 100.55 47.4495 98.7923 46.3852C97.0344 45.3098 95.7982 43.791 95.0837 41.8286C94.3806 39.8553 94.2615 37.5216 94.7265 34.8275C95.1801 32.2 96.0931 29.8941 97.4654 27.9096C98.849 25.9251 100.584 24.3785 102.671 23.2699C104.758 22.1612 107.083 21.6069 109.646 21.6069C111.37 21.6069 112.929 21.8785 114.324 22.4218C115.73 22.9539 116.899 23.7632 117.829 24.8497C118.759 25.9251 119.394 27.2721 119.734 28.8907C120.085 30.5094 120.08 32.4051 119.717 34.5781L119.394 36.5238H101.599L101.565 36.7067C101.338 38.0482 101.384 39.1624 101.701 40.0493C102.03 40.9362 102.597 41.6014 103.403 42.0448C104.208 42.4772 105.228 42.6934 106.465 42.6934C107.27 42.6934 108.024 42.5825 108.727 42.3608C109.442 42.1391 110.077 41.812 110.633 41.3796C111.188 40.9362 111.642 40.3874 111.993 39.7333L118.611 40.1657C117.999 41.74 117.069 43.1147 115.821 44.2898C114.574 45.4539 113.071 46.363 111.313 47.0171C109.566 47.6601 107.61 47.9816 105.444 47.9816ZM113.082 29.4229C113.388 30.21 113.456 31.1136 113.286 32.1335H102.409C102.608 31.2515 102.996 30.4311 103.573 29.6723C104.208 28.8408 104.99 28.1701 105.92 27.6601C106.85 27.1502 107.848 26.8952 108.914 26.8952C109.958 26.8952 110.837 27.1224 111.551 27.577C112.266 28.0204 112.776 28.6357 113.082 29.4229Z" fill="#6366F0"/>
<path d="M192.838 21.9395L192.532 23.7522H186.787L182.75 47.4827H180.708L184.743 23.7522H180.93L181.253 21.9395H185.051L185.727 17.965C185.931 16.679 186.407 15.5814 187.156 14.6723C187.916 13.7632 188.829 13.0703 189.895 12.5936C190.961 12.1169 192.067 11.8785 193.212 11.8785C193.813 11.8785 194.312 11.9229 194.709 12.0116C195.106 12.1003 195.452 12.2 195.747 12.3109L194.862 14.1069C194.613 14.0404 194.346 13.9739 194.063 13.9074C193.779 13.8408 193.428 13.8076 193.008 13.8076C191.704 13.8076 190.553 14.2012 189.555 14.9883C188.568 15.7643 187.955 16.8619 187.717 18.281L187.095 21.9395H192.838Z" fill="#6366F0"/>
</svg>
